<svg id="a" xmlns="http://www.w3.org/2000/svg" viewBox="0 0 1400 1400"><defs><clipPath id="b"><path style="fill:none" d="M0 0h1400v1400H0z"/></clipPath><style>.c{fill:#603b46}.d{fill:#b2cdc1}.g{fill:#ae856c}.h{fill:#caba97}.j{fill:#4f6271}.k{fill:#24222e}.l{fill:#2d434d}.m{fill:#7b4043}.o{fill:#243a4e}.p{fill:#38514f}</style></defs><g style="clip-path:url(#b)"><path d="M504 280h476v23c0 4 1 5 5 5h18c4 0 5 1 5 5v73c0 4 1 6 6 6h22v78c0 4 1 6 6 6h22v924H336V812h79c3 0 5-1 5-5v-18c0-4-2-5-5-5h-79v-56h79c4 0 5-2 5-5v-17c0-5-1-6-6-6h-50v-17c0-12-1-11 11-11h185v-56h28v-56h-28v-56h-28v-28H392v56h-28v-49c0-7 0-7-6-7h-17c-4 0-5-1-5-5v-47c0-3 1-4 5-4h17c6 0 6 0 6-7v-43c0-4 1-6 6-6h17c3 0 5-1 5-5v-18c0-4 2-5 5-5h16c7 0 7 0 7-7v-14c0-7 0-7 6-7h44c5 0 6-1 6-6v-22h28Zm140 392h-23c-3 0-5 1-5 5v18c0 4 1 5 5 5h73c4 0 6-1 6-6v-16c0-5-2-6-6-6h-50Zm336-112v-28h-28v-56H812v28h-28v56h-28v56h28v56h168v-28h28v-84Zm0 252h-50c-4 0-6 1-6 5v18c0 4 1 5 5 5h102c4 0 5-1 5-5v-17c0-4-1-6-6-6h-50Zm0-56h51c4 0 5-1 5-5v-18c0-4-1-5-5-5H928c-3 0-4 1-4 4v18c0 5 1 6 6 6h50Z" style="fill:#272e44"/><path class="k" d="M280 1400V430q0-10-10-10h-12c-5 0-6-2-6-6V66c0-11-1-10 10-10h13c4 0 5 1 5 5v17c0 5 2 6 6 6h18c3 0 4 1 4 4v46c0 4 1 6 5 6h18c4 0 5 1 5 5v18c0 4 1 5 5 5h23v50c0 5 1 6 6 6h50v23c0 4 1 5 5 5h51v50c0 5-1 6-6 6h-44c-6 0-6 0-6 7v14c0 7 0 7-7 7h-16c-3 0-5 1-5 5v18c0 4-1 5-5 5h-17c-5 0-6 2-6 6v43c0 7 0 7-6 7h-17c-4 0-5 1-5 5v46c0 4 1 5 5 5h17c6 0 6 0 6 7v161h28v28h-17c-12 0-11-1-11 11v17h-23c-4 0-5 1-5 5v695h-56Zm84-1148h-21q-7 0-7-7v-43c0-5-1-6-6-6h-17c-4 0-5 1-5 5v130c0 3 1 5 5 5h46c4 0 5-1 5-5v-18c0-4 1-5 5-5h18c4 0 5-1 5-5v-46c0-4-1-5-5-5h-23Z"/><path class="o" d="M1092 84V61c0-4 1-5 5-5h18c4 0 5 1 5 5v355c0 3-1 4-5 4h-17c-6 0-6 0-6 7v973h-26V480l-2-4-5-2h-12c-9 0-9 0-9-9v-66l-2-7-5-2h-13c-8 0-8 0-8-8v-46h48c5 0 6-2 6-6V146c0-4 1-6 6-6h16c5 0 6-1 6-6V84Z"/><path class="o" d="m1064 476 2 4v920h-2V476Z"/><path class="k" d="M1092 84v50c0 5-1 6-6 6h-17c-4 0-5 1-5 6v50h-22c-5 0-6 1-6 6v50h-51c-4 0-5 1-5 5v23H868v-22c0-5 1-6 6-6h44c5 0 6-2 6-6v-17c0-4 1-5 5-5h15q8 0 8-8v-42c0-5 1-6 6-6h41q9 0 9-8v-42c0-5 1-6 6-6h41q9 0 9-9V88c0-3 1-4 5-4h23Z"/><path class="o" d="M420 224h-50c-5 0-6-1-6-6v-50h50c5 0 6 1 6 6v50ZM364 168h-23c-4 0-5-1-5-5v-18c0-4-1-5-5-5h-18c-4 0-5-2-5-6v-22h50c6 0 6 0 6 7v49ZM448 252h-23c-4 0-5-1-5-5v-23h22c4 0 6 1 6 5v23ZM476 277v-25h22c4 0 6 2 6 6l-2 13 2 6h-28ZM476 277h28v3h-28v-3Z"/><path class="h" d="M392 672v-28h-28v-84h84v84h56v-56h22c4 0 6-1 6-6v-22h56v56h-28v56H392ZM980 560v84h-28v28H784v-56h-28v-56h84v84h56v-56h22c4 0 6-1 6-6v-22h56Z"/><path class="g" d="M448 560h-84v-28h28v-56h140v28h28v56h-56v-56h-56v56ZM840 560h-56v-56h28v-28h140v56h28v28h-84v-56h-56v56Z"/><path class="m" d="M980 280v-23c0-4 1-5 5-5h51v84h-28v-23c0-4-1-5-5-5h-18c-4 0-5-1-5-5v-23Z"/><path class="j" d="M980 812h50c5 0 6 2 6 6v17c0 4-1 5-5 5H929c-4 0-5-1-5-5v-18c0-4 2-5 6-5h50ZM980 756h-50c-5 0-6-1-6-6v-18c0-3 1-4 4-4h103c4 0 5 1 5 5v18c0 4-1 5-5 5h-51ZM336 728v-23c0-4 1-5 5-5h73c5 0 6 1 6 6v17c0 3-1 5-5 5h-79ZM336 812v-28h79c3 0 5 1 5 5v18c0 4-2 5-5 5h-79Z"/><path class="m" d="M644 672h50c4 0 6 1 6 6v16c0 5-2 6-6 6h-50v-28Z"/><path class="k" d="M644 672v28h-23c-3 0-5-1-5-5v-18c0-4 1-5 5-5h23Z"/><path class="o" d="m1036 392 2 7v66c0 9 0 9 9 9h12l5 2h-22c-5 0-6-2-6-6v-78ZM1008 336h2v45c0 9 0 9 8 9h13l5 2h-22c-5 0-6-2-6-6v-50Z"/><path class="m" d="M308 308V201c0-4 1-5 5-5h17c5 0 6 1 6 6v43q0 7 7 7h21v22c0 4-1 6-6 6h-17c-4 0-5 1-5 5v17c0 5-2 6-6 6h-22Z"/><path class="c" d="M308 308h22c4 0 6-1 6-6v-17c0-4 1-5 5-5h17c5 0 6-2 6-6v-22h23c3 0 5 1 5 5v46c0 4-1 5-5 5h-18c-4 0-5 1-5 5v18c0 4-1 5-5 5h-46c-4 0-5-2-5-5v-23ZM1036 336V202c0-5 1-6 6-6h22v134c0 4-1 6-6 6h-22Z"/><path class="p" d="M504 588v56h-56v-84h28v28h28Z"/><path class="d" d="M504 588h-28v-28h56v22c0 5-2 6-6 6h-22Z"/><path class="p" d="M896 588v56h-56v-84h28v28h28Z"/><path class="d" d="M896 588h-28v-28h56v22c0 5-2 6-6 6h-22Z"/><path class="l" d="M504 560h-56v-56h56v56ZM896 560h-56v-56h56v56Z"/></g><path style="fill:#613a45" d="M644 749h56v57h-56z"/></svg>