<?xml version="1.0" encoding="UTF-8"?><svg id="a" xmlns="http://www.w3.org/2000/svg" xmlns:xlink="http://www.w3.org/1999/xlink" viewBox="0 0 1400 1400"><defs><style>.c{fill:#603b46;}.d{fill:#b2cdc1;}.e{fill:#272e44;}.f{clip-path:url(#b);}.g{fill:#ae856c;}.h{fill:#caba97;}.i{fill:none;}.j{fill:#4f6271;}.k{fill:#24222e;}.l{fill:#2d434d;}.m{fill:#7b4043;}.n{fill:#613a45;}.o{fill:#243a4e;}.p{fill:#38514f;}</style><clipPath id="b"><rect class="i" x="0" y="0" width="1400" height="1400"/></clipPath></defs><g class="f"><g><path class="e" d="M504.06,279.96c121.3,0,242.6,.02,363.9,.02,37.29,0,74.59,0,111.88,0,.05,7.64,.27,15.29,.1,22.93-.09,3.97,1.46,5.27,5.28,5.14,5.98-.21,11.97,.1,17.94-.09,3.73-.12,4.95,1.42,4.88,5.01-.15,7.64-.02,15.29,0,22.93-.01,16.83,.05,33.66-.09,50.49-.03,4.03,1.41,5.75,5.55,5.65,7.49-.18,15-.04,22.5-.04h0c0,25.97,.08,51.95-.06,77.92-.02,4.51,1.51,6.29,6.09,6.14,7.32-.25,14.65-.06,21.98-.06h0c0,308,0,615.99,0,923.99H336c0-192.87,0-385.75,0-578.62,0-3.16,.05-6.33,.07-9.49,26.28,.04,52.56,.03,78.84,.15,3.5,.02,5.24-.99,5.12-4.81-.19-6.15-.19-12.31,0-18.46,.12-3.81-1.63-4.82-5.12-4.81-26.28,.12-52.56,.12-78.84,.15v-56.23c26.29,.04,52.58,.01,78.87,.17,4.02,.02,5.23-1.6,5.1-5.36-.2-5.48-.3-11,.03-16.47,.29-4.75-1.35-6.38-6.2-6.32-16.64,.2-33.28,0-49.92-.06,.01-5.65,.03-11.3,.04-16.95,.04-11.74-.98-10.87,10.64-10.89,5.82-.01,11.64-.03,17.45-.04h168.09v-56.12h27.53v-55.94c-9.39,0-18.51,0-27.64,0,0-18.43,0-36.86,0-56.05h-28.35v-27.49h-139.78v55.75h-27.89c-.02-16.49-.03-32.98-.07-49.47-.02-6.23-.38-6.58-6.44-6.63-5.66-.04-11.33-.07-16.99-.02-3.12,.03-4.56-1.36-4.56-4.51,.04-15.66,.04-31.31,0-46.97,0-3.16,1.45-4.53,4.56-4.5,5.66,.05,11.33,.03,16.99-.02,6.05-.05,6.41-.4,6.43-6.64,.03-14.32,.14-28.65-.06-42.97-.07-4.67,1.39-6.71,6.28-6.45,5.48,.3,10.99-.06,16.48,.1,3.83,.11,5.45-1.44,5.34-5.3-.16-5.83,.09-11.66-.06-17.49-.11-3.9,1.57-5.38,5.38-5.27,5.16,.16,10.33,.05,15.49,.03,6.91-.03,7.13-.24,7.16-6.91,.02-4.83-.02-9.66,.01-14.49,.04-6.21,.37-6.57,6.48-6.58,14.66-.03,29.32-.1,43.97,.03,4.09,.04,5.68-1.51,5.58-5.59-.17-7.49-.01-14.99,0-22.48,9.33,0,18.67,0,28.01,0Zm140.02,392.08c-7.67-.01-15.33,.05-23-.07-3.58-.06-5.18,1.37-5.11,5.02,.12,6,.12,12,0,18-.08,3.65,1.52,5.08,5.11,5.02,7.66-.12,15.33-.06,23-.07,16.63,.02,33.26-.08,49.88,.12,4.38,.05,6.42-1.07,6.12-5.85-.35-5.46-.35-10.99,0-16.45,.31-4.78-1.74-5.9-6.12-5.85-16.63,.2-33.25,.1-49.88,.12Zm335.76-112v-28.3h-28.03v-55.39h-139.86v27.82h-28.03v55.72h-27.61v56.28h27.84v55.5h168.08v-27.87h27.62c0-28.19,0-55.98,0-83.76Zm.15,251.96c-16.8,0-33.61,.08-50.41-.06-3.94-.03-5.83,1.04-5.64,5.33,.26,5.98,.17,11.98,.03,17.97-.08,3.34,1.12,4.79,4.62,4.79,34.27-.07,68.55-.07,102.82,0,3.51,0,4.69-1.47,4.61-4.8-.13-5.65-.28-11.33,.05-16.97,.27-4.71-1.27-6.43-6.17-6.35-16.63,.25-33.28,.1-49.91,.1Zm-.35-56.01c16.97,0,33.94-.09,50.91,.07,4.09,.04,5.68-1.32,5.5-5.47-.25-5.98-.18-11.98-.03-17.97,.09-3.48-1.39-4.66-4.76-4.65-34.27,.07-68.55,.06-102.82,.01-3.17,0-4.52,1.22-4.46,4.42,.11,5.99,.24,11.99-.05,17.96-.22,4.44,1.5,5.75,5.8,5.7,16.64-.19,33.28-.08,49.91-.08Z"/><path class="k" d="M280,1400c0-323.31,0-646.61,0-969.92q0-10.08-10.01-10.08c-4,0-8.01-.21-12,.05-4.62,.3-6.1-1.65-6.06-6.15,.16-19.33,.08-38.66,.06-57.99-.01-16-.05-32-.07-48,.02-80.75,.04-161.5,.08-242.26,0-10.52-.84-9.61,9.75-9.65,4.33-.02,8.67,.16,12.98-.04,3.83-.18,5.45,1.26,5.31,5.2-.2,5.65,.2,11.33-.12,16.98-.27,4.72,1.69,6.13,6.14,5.93,5.82-.27,11.65,.02,17.48-.07,3.18-.05,4.49,1.3,4.47,4.47-.06,7.82,.05,15.65,.08,23.47-.03,7.49,.07,14.99-.14,22.48-.11,4.04,1.36,5.77,5.51,5.63,5.82-.2,11.66,.06,17.48-.07,3.6-.08,5.15,1.38,5.07,5.02-.13,5.99,.08,11.99-.05,17.99-.08,3.63,1.43,5.1,5.05,5.04,7.66-.12,15.32-.02,22.98-.02l-.02-.02c0,16.66,.12,33.33-.06,49.99-.05,4.56,1.54,6.15,6.1,6.1,16.66-.18,33.32-.07,49.99-.06l-.02-.02c0,7.6,.12,15.2-.03,22.8-.08,3.85,1.5,5.33,5.3,5.24,7.6-.17,15.2-.1,22.8-.13,9.29,.06,18.59,.13,27.88,.19,.04,8.3,.09,16.6,.13,24.9,0,.99-.01,1.98-.02,2.97-.02,7.5-.17,14.99,0,22.48,.09,4.08-1.5,5.63-5.58,5.59-14.66-.13-29.31-.07-43.97-.03-6.11,.01-6.44,.38-6.48,6.58-.03,4.83,.01,9.66-.01,14.49-.03,6.68-.25,6.89-7.16,6.91-5.16,.02-10.33,.13-15.49-.03-3.8-.12-5.48,1.37-5.38,5.27,.16,5.83-.09,11.66,.06,17.49,.1,3.87-1.51,5.41-5.34,5.3-5.49-.16-11,.2-16.48-.1-4.88-.26-6.34,1.77-6.28,6.45,.21,14.32,.09,28.65,.06,42.97-.01,6.23-.38,6.59-6.43,6.64-5.66,.04-11.33,.07-16.99,.02-3.12-.03-4.57,1.35-4.56,4.5,.04,15.66,.04,31.31,0,46.97,0,3.15,1.43,4.54,4.56,4.51,5.66-.05,11.33-.02,16.99,.02,6.06,.05,6.42,.4,6.44,6.63,.05,16.49,.05,32.98,.07,49.47,.03,9.31,.06,18.63,.09,27.94,0,27.85,0,55.69,0,84.06h27.94v27.85c-5.82,.01-11.64,.03-17.45,.04-11.62,.02-10.61-.85-10.64,10.89-.02,5.65-.03,11.3-.04,16.95-7.78,.05-15.55,.22-23.33,.11-3.38-.05-4.75,1.12-4.67,4.6,.18,7.77,.09,15.55,.12,23.33,0,18.74,0,37.49,0,56.23,0,9.26,0,18.51,0,27.77-.03,3.16-.07,6.33-.07,9.49,0,192.87,0,385.75,0,578.62h-56ZM363.94,252.14c-6.82-.05-13.64-.11-20.45-.14q-7.47-.03-7.49-7.27c0-14.3-.17-28.61,.09-42.91,.08-4.66-1.53-6.14-6.03-5.9-5.81,.31-11.64,.21-17.46,.04-3.48-.1-4.65,1.3-4.64,4.7,.12,35.76,.13,71.52,.18,107.28-.05,7.67,0,15.33-.18,22.99-.08,3.56,1.16,5.13,4.9,5.1,15.5-.12,31-.1,46.5-.01,3.49,.02,4.72-1.47,4.66-4.81-.12-6.16,.08-12.33-.05-18.5-.07-3.42,1.32-4.81,4.74-4.74,6.16,.13,12.33-.07,18.5,.05,3.35,.06,4.83-1.17,4.81-4.66-.09-15.5-.1-31,.01-46.5,.03-3.74-1.53-4.98-5.1-4.9-7.66,.18-15.33,.13-22.99,.18Z"/><path class="o" d="M1091.97,83.99c.01-7.67,.12-15.33,0-23-.06-3.64,1.46-5.11,5.07-5.02,6,.14,12,.14,18,0,3.68-.08,5.2,1.53,4.96,5.11-.09,1.33,0,2.67,0,4,0,115.32,0,230.64,0,345.96,0,1.5-.07,3-.01,4.5,.12,3.19-1.45,4.5-4.56,4.46-5.67-.07-11.33-.03-17,.01-6.1,.04-6.36,.33-6.42,6.61-.01,1.67,0,3.33,0,5v968.38h-26c0-304.57,0-609.15,0-913.72,0-2,.23-4.04-.1-5.98-.26-1.5-1.24-2.87-1.9-4.29h0c-1.75-.66-3.47-1.77-5.27-1.91-3.96-.29-7.96-.09-11.95-.1-8.7-.01-8.78-.09-8.78-8.99,0-22.08,.06-44.17-.09-66.25-.01-2.26-1.25-4.5-1.92-6.75h0c-1.75-.66-3.48-1.78-5.27-1.9-4.13-.29-8.3-.09-12.45-.1-8.04-.02-8.27-.25-8.28-8.5,0-15.11,0-30.23,0-45.34,8.65-.1,17.29-.2,25.94-.29,7.48,.04,14.97-.09,22.44,.2,4.45,.17,5.7-1.66,5.69-5.88-.12-44.72-.1-89.43-.12-134.15,.02-16.83,.12-33.65,.01-50.48-.03-4.06,1.41-5.76,5.54-5.6,5.49,.21,11-.16,16.49,.11,4.57,.23,6.15-1.53,6.09-6.09-.19-16.66-.09-33.32-.1-49.98Z"/><path class="o" d="M1063.99,476c.66,1.43,1.64,2.8,1.9,4.29,.34,1.94,.1,3.98,.1,5.98,0,304.57,0,609.15,0,913.72h-2c0-308,0-616,0-924Z"/><path class="k" d="M1091.97,83.99c0,16.66-.1,33.32,.1,49.98,.05,4.55-1.52,6.31-6.09,6.09-5.48-.27-11,.1-16.49-.11-4.13-.16-5.57,1.55-5.54,5.6,.11,16.82,0,33.65-.01,50.48-7.33-.01-14.67,.19-21.98-.11-4.59-.19-6.09,1.49-6.03,6.04,.2,16.65,.07,33.31,.06,49.97-16.94,.02-33.88,.13-50.81,0-3.82-.03-5.34,1.16-5.24,5.13,.19,7.63-.04,15.27-.09,22.91-37.29,0-74.59,0-111.88,0,.01-7.33,.23-14.66-.03-21.98-.16-4.51,1.35-6.16,5.98-6.09,14.65,.23,29.31-.08,43.95,.17,4.89,.08,6.46-1.67,6.21-6.38-.31-5.64,.03-11.32-.1-16.98-.08-3.39,1.28-4.85,4.71-4.75,4.99,.14,9.99,.03,14.98,.02q8.32,0,8.32-8.09c0-13.99,.15-27.97-.08-41.96-.07-4.58,1.48-6.11,6.05-6.03,13.82,.22,27.64,.08,41.46,.08q8.57,0,8.57-8.34c0-13.99,.13-27.97-.07-41.96-.06-4.36,1.44-5.84,5.79-5.78,13.82,.2,27.64,.07,41.46,.07q8.82,0,8.83-8.59c0-5,.09-9.99,0-14.98-.06-3.2,1.35-4.47,4.5-4.44,7.82,.08,15.65,.01,23.48,0Z"/><path class="o" d="M420.01,224.01c-16.66,0-33.33-.12-49.99,.06-4.56,.05-6.15-1.54-6.1-6.1,.18-16.66,.07-33.32,.06-49.99,16.66,0,33.33,.12,49.99-.06,4.56-.05,6.14,1.53,6.09,6.09-.18,16.66-.07,33.32-.06,49.99Z"/><path class="o" d="M364.01,168.01c-7.66,0-15.32-.1-22.98,.02-3.62,.06-5.13-1.42-5.05-5.04,.13-5.99-.08-11.99,.05-17.99,.08-3.64-1.47-5.1-5.07-5.02-5.83,.13-11.66-.13-17.48,.07-4.15,.15-5.62-1.58-5.51-5.63,.21-7.49,.11-14.99,.14-22.48,16.48,.02,32.96,.03,49.44,.07,6.15,.02,6.44,.31,6.45,6.55,.03,16.48,.02,32.96,.02,49.44Z"/><path class="o" d="M448.06,251.9c-7.6,.03-15.2-.05-22.8,.13-3.8,.09-5.37-1.39-5.3-5.24,.15-7.6,.03-15.2,.03-22.8,7.48,0,14.97,.15,22.45-.04,4.04-.1,5.71,1.37,5.61,5.51-.18,7.48-.01,14.96,.01,22.44Z"/><path class="o" d="M476.07,277c-.04-8.3-.09-16.6-.13-24.9,7.46-.02,14.91-.01,22.37-.07,3.92-.03,6.03,1.71,5.65,5.74-.43,4.57-1.27,9.1-1.5,13.67-.09,1.82,.94,3.7,1.46,5.56h-27.85Z"/><path class="o" d="M476.07,277h27.85c.04,.99,.09,1.98,.14,2.96-9.33,0-18.67,0-28.01,0,0-.99,.02-1.98,.02-2.97Z"/><path class="h" d="M392.09,671.95v-27.85h-27.94c0-28.37,0-56.22,0-84.06,27.89-.02,55.77-.04,83.66-.06,0,27.89,0,55.77,0,83.71h56.13v-55.59c7.32-.04,14.65-.26,21.96-.04,4.44,.13,6.36-1.27,6.17-5.96-.3-7.31-.11-14.64-.13-21.96l28.14-.25h27.64v55.94h-27.53v56.12h-168.09Z"/><path class="h" d="M979.84,560.04v83.76h-27.62v27.87h-168.08v-55.5h-27.84v-56.28c9.13,0,18.37,0,27.61,0,18.63,.03,37.27,.07,55.9,.1v83.71h56.13v-55.59c7.32-.04,14.65-.26,21.96-.04,4.44,.13,6.36-1.27,6.17-5.96-.3-7.31-.11-14.64-.13-21.96,18.63-.03,37.27-.07,55.9-.1Z"/><path class="g" d="M447.81,559.99c-27.89,.02-55.77,.04-83.66,.06-.03-9.31-.06-18.63-.09-27.94,9.11,0,18.22,0,27.89,0v-55.75h139.78v27.49h28.35c0,19.19,0,37.62,0,56.05-9.38,.08-18.76,.17-28.14,.25-9.32-.1-18.64-.2-27.96-.3v-55.49h-55.75v55.67l-.41-.04Z"/><path class="g" d="M839.81,559.99c-18.63-.03-37.27-.07-55.9-.1,0-18.32,0-36.64,0-55.72h28.03v-27.82h139.86v55.39h28.03c0,9.81,0,19.06,0,28.3-18.63,.03-37.27,.07-55.9,.1-9.32-.1-18.64-.2-27.96-.3v-55.49h-55.75v55.67l-.41-.04Z"/><path class="m" d="M979.84,279.98c.05-7.64,.28-15.28,.09-22.91-.1-3.97,1.42-5.16,5.24-5.13,16.94,.12,33.87,.02,50.81,0-.02,27.98-.03,55.95-.05,83.93-8.65,.1-17.29,.2-25.94,.29-.65-.09-1.3-.17-1.96-.26-.02-7.64-.15-15.29,0-22.93,.07-3.59-1.15-5.13-4.88-5.01-5.98,.19-11.97-.11-17.94,.09-3.82,.13-5.37-1.17-5.28-5.14,.18-7.64-.04-15.28-.1-22.93Z"/><path class="j" d="M979.99,812c16.64,0,33.28,.15,49.91-.1,4.9-.07,6.44,1.65,6.17,6.35-.32,5.64-.18,11.31-.05,16.97,.08,3.33-1.09,4.81-4.61,4.8-34.27-.07-68.55-.07-102.82,0-3.5,0-4.7-1.44-4.62-4.79,.14-5.99,.23-11.99-.03-17.97-.19-4.29,1.7-5.36,5.64-5.33,16.8,.14,33.61,.06,50.41,.06Z"/><path class="j" d="M979.64,755.99c-16.64,0-33.28-.11-49.91,.08-4.29,.05-6.02-1.26-5.8-5.7,.3-5.98,.17-11.98,.05-17.96-.06-3.21,1.29-4.43,4.46-4.42,34.27,.05,68.55,.05,102.82-.01,3.37,0,4.85,1.18,4.76,4.65-.15,5.99-.22,11.99,.03,17.97,.17,4.15-1.41,5.51-5.5,5.47-16.97-.16-33.94-.07-50.91-.07Z"/><path class="j" d="M336.07,727.88c-.02-7.78,.07-15.56-.12-23.33-.08-3.48,1.28-4.64,4.67-4.6,7.77,.11,15.55-.06,23.33-.11,16.64,.05,33.28,.26,49.92,.06,4.86-.06,6.49,1.58,6.2,6.32-.33,5.47-.23,10.98-.03,16.47,.13,3.76-1.07,5.38-5.1,5.36-26.29-.16-52.58-.13-78.87-.17Z"/><path class="j" d="M336.07,811.88c0-9.26,0-18.51,0-27.77,26.28-.04,52.56-.03,78.84-.15,3.5-.02,5.24,.99,5.12,4.81-.19,6.15-.19,12.31,0,18.46,.12,3.81-1.63,4.82-5.12,4.81-26.28-.12-52.56-.12-78.84-.15Z"/><path class="m" d="M644.08,672.05c16.63-.02,33.26,.08,49.88-.12,4.38-.05,6.42,1.07,6.12,5.85-.35,5.46-.35,10.99,0,16.45,.31,4.78-1.74,5.9-6.12,5.85-16.63-.2-33.25-.1-49.88-.12v-27.91Z"/><path class="k" d="M644.08,672.05v27.91c-7.67,.01-15.33-.06-23,.07-3.58,.06-5.18-1.37-5.11-5.02,.12-6,.12-12,0-18-.08-3.65,1.52-5.08,5.11-5.02,7.66,.12,15.33,.06,23,.07Z"/><path class="o" d="M1035.99,392c.67,2.25,1.9,4.5,1.92,6.75,.15,22.08,.08,44.17,.09,66.25,0,8.91,.08,8.98,8.78,8.99,3.98,0,7.98-.2,11.95,.1,1.79,.13,3.51,1.24,5.27,1.91-7.33,0-14.66-.19-21.98,.06-4.58,.16-6.11-1.62-6.09-6.14,.14-25.97,.06-51.95,.06-77.92Z"/><path class="o" d="M1008.04,335.9c.65,.09,1.3,.17,1.96,.26,0,15.11,0,30.23,0,45.34,0,8.25,.24,8.48,8.28,8.5,4.15,.01,8.32-.19,12.45,.1,1.79,.13,3.51,1.24,5.27,1.91-7.5,0-15-.14-22.5,.04-4.13,.1-5.58-1.61-5.55-5.65,.13-16.83,.08-33.66,.09-50.49Z"/><path class="m" d="M308.14,307.94c-.05-35.76-.06-71.52-.18-107.28-.01-3.4,1.16-4.8,4.64-4.7,5.82,.17,11.65,.27,17.46-.04,4.5-.24,6.11,1.24,6.03,5.9-.26,14.3-.1,28.61-.09,42.91q0,7.25,7.49,7.27c6.82,.03,13.64,.09,20.46,.14,.02,7.33-.12,14.67,.11,21.99,.13,4.25-1.37,6.1-5.77,5.92-5.65-.23-11.33,.07-16.99-.08-3.85-.11-5.43,1.47-5.32,5.32,.16,5.66-.15,11.34,.08,16.99,.18,4.4-1.67,5.9-5.92,5.77-7.32-.22-14.66-.09-21.99-.11Z"/><path class="c" d="M308.14,307.94c7.33,.02,14.67-.12,21.99,.11,4.25,.13,6.1-1.37,5.92-5.77-.23-5.65,.07-11.33-.08-16.99-.11-3.85,1.47-5.43,5.32-5.32,5.66,.16,11.34-.15,16.99,.08,4.4,.18,5.9-1.67,5.77-5.92-.22-7.32-.09-14.66-.11-21.99,7.67-.04,15.33,0,22.99-.18,3.56-.08,5.13,1.16,5.1,4.9-.12,15.5-.1,31-.01,46.5,.02,3.49-1.47,4.72-4.81,4.66-6.16-.12-12.33,.08-18.5-.05-3.42-.07-4.81,1.32-4.74,4.74,.13,6.16-.07,12.33,.05,18.5,.06,3.35-1.17,4.83-4.66,4.81-15.5-.09-31-.1-46.5,.01-3.74,.03-4.98-1.53-4.9-5.1,.18-7.66,.13-15.33,.18-22.99Z"/><path class="c" d="M1035.94,335.86c.02-27.98,.03-55.95,.05-83.93,0-16.66,.14-33.32-.06-49.97-.05-4.56,1.44-6.23,6.03-6.04,7.32,.3,14.66,.1,21.98,.11,.02,44.72,0,89.43,.12,134.15,.01,4.22-1.24,6.05-5.69,5.88-7.47-.29-14.96-.15-22.44-.2Z"/><path class="p" d="M503.94,588.11v55.59h-56.13c0-27.94,0-55.83,0-83.71l.41,.04c9.3,.01,18.59,.02,27.89,.03v28.06h27.83Z"/><path class="d" d="M503.94,588.11h-27.83c0-9.66,0-18.86,0-28.06,9.29-.07,18.57-.14,27.86-.21,9.32,.1,18.64,.2,27.96,.3,.02,7.32-.17,14.65,.13,21.96,.19,4.7-1.73,6.1-6.17,5.96-7.31-.22-14.64,0-21.96,.04Z"/><path class="p" d="M895.94,588.11v55.59h-56.13v-83.71l.41,.04c9.3,.01,18.59,.02,27.89,.03v28.06h27.83Z"/><path class="d" d="M895.94,588.11h-27.83c0-9.66,0-18.86,0-28.06,9.29-.07,18.57-.14,27.86-.21,9.32,.1,18.64,.2,27.96,.3,.02,7.32-.17,14.65,.13,21.96,.19,4.7-1.73,6.1-6.17,5.96-7.31-.22-14.64,0-21.96,.04Z"/><path class="l" d="M503.98,559.84c-9.29,.07-18.57,.14-27.86,.21-9.3,0-18.59-.02-27.89-.03,0-18.44,0-36.87,0-55.67h55.75v55.49Z"/><path class="l" d="M895.98,559.84c-9.29,.07-18.57,.14-27.86,.21-9.3,0-18.59-.02-27.89-.03,0-18.44,0-36.87,0-55.67h55.75v55.49Z"/></g></g><rect class="n" x="643.89" y="749.32" width="56.16" height="56.16"/></svg>