<?xml version="1.0" encoding="UTF-8"?><svg xmlns="http://www.w3.org/2000/svg" viewBox="0 0 24 24" fill="currentColor"><rect class="b" x="11.22" y="3.24" width="1.58" height="1.58"/><rect class="b" x="12.78" y="4.78" width="3.26" height="1.58"/><rect class="b" x="16.05" y="6.37" width="3.26" height="1.58"/><rect class="b" x="19.19" y="7.95" width="3.26" height="1.58"/><rect class="b" x="19.13" y="11.24" width="3.26" height="1.58"/><rect class="b" x="12.82" y="14.44" width="3.26" height="1.58"/><rect class="b" x="15.96" y="12.79" width="3.26" height="1.58"/><rect class="b" x="8.07" y="14.44" width="3.26" height="1.58"/><rect class="b" x="4.87" y="12.88" width="3.26" height="1.58"/><rect class="b" x="1.61" y="11.27" width="3.26" height="1.58"/><rect class="b" x="1.55" y="7.98" width="3.26" height="1.58"/><rect class="b" x="4.87" y="6.37" width="3.26" height="1.58"/><rect class="b" x="7.95" y="4.75" width="3.26" height="1.58"/><rect class="b" x="22.37" y="9.56" width="1.58" height="1.58"/><rect class="b" x=".05" y="9.56" width="1.58" height="1.58"/><rect class="b" x="11.25" y="9.59" width="1.58" height="1.58"/><rect class="d" x="12.81" y="9.56" width="3.17" height="1.58"/><rect class="d" x="15.97" y="11.21" width="3.17" height="1.58"/><rect class="d" x="16.84" y="15.23" width="6.37" height="1.58" transform="translate(36.05 -4.01) rotate(90)"/><rect class="c" x="19.25" y="19.19" width="1.55" height="1.58" transform="translate(40.01 -.05) rotate(90)"/><rect class="b" x="4.02" y="15.2" width="3.26" height="1.58" transform="translate(21.64 10.34) rotate(90)"/><rect class="b" x="16.81" y="15.2" width="3.26" height="1.58" transform="translate(34.43 -2.45) rotate(90)"/><rect class="b" x="11.25" y="15.99" width="1.58" height="1.58"/><rect class="b" x="14.47" y="17.63" width="3.26" height="1.58"/><rect class="b" x="6.49" y="17.57" width="3.26" height="1.58"/><rect class="b" x="9.62" y="19.16" width="4.92" height="1.58"/></svg>