<svg xmlns="http://www.w3.org/2000/svg" fill="currentColor" viewBox="0 0 24 24">
  <path d="M11.22 3.24h1.58v1.58h-1.58z" class="b"/>
  <path d="M12.78 4.78h3.26v1.58h-3.26zM16.05 6.37h3.26v1.58h-3.26zM19.19 7.95h3.26v1.58h-3.26zM19.13 11.24h3.26v1.58h-3.26zM12.82 14.44h3.26v1.58h-3.26z" class="b"/>
  <path d="M15.96 12.79h3.26v1.58h-3.26zM8.07 14.44h3.26v1.58H8.07z" class="b"/>
  <path d="M4.87 12.88h3.26v1.58H4.87zM1.61 11.27h3.26v1.58H1.61zM1.55 7.98h3.26v1.58H1.55zM4.87 6.37h3.26v1.58H4.87zM7.95 4.75h3.26v1.58H7.95zM22.37 9.56h1.58v1.58h-1.58zM.05 9.56h1.58v1.58H.05zM11.25 9.59h1.58v1.58h-1.58z" class="b"/>
  <path d="M12.81 9.56h3.17v1.58h-3.17zM15.97 11.21h3.17v1.58h-3.17zM20.82 12.83v6.37h-1.58v-6.37z" class="d"/>
  <path d="M20.82 19.2v1.55h-1.58V19.2z" class="c"/>
  <path d="M6.44 14.36v3.26H4.86v-3.26zM19.23 14.36v3.26h-1.58v-3.26zM11.25 15.99h1.58v1.58h-1.58zM14.47 17.63h3.26v1.58h-3.26zM6.49 17.57h3.26v1.58H6.49z" class="b"/>
  <path d="M9.62 19.16h4.92v1.58H9.62z" class="b"/>
</svg>
