<svg xmlns="http://www.w3.org/2000/svg" xml:space="preserve" fill="currentColor" viewBox="0 0 512 512">
  <path d="M166.957 38.957h33.391v33.391h-33.391zm33.391 33.391h33.391v33.391h-33.391zm-33.391 33.391h33.391v33.391h-33.391zm33.391 33.391h33.391v33.391h-33.391zm66.782-33.391h33.391v33.391H267.13zm33.392-33.391h33.391v33.391h-33.391zm0 66.782h33.391v33.391h-33.391zM100.174 72.348h33.391v33.391h-33.391zm-33.391 33.391h33.391v33.391H66.783zm33.391 33.391h33.391v33.391h-33.391zm378.435 133.566v-33.392h-66.783v-33.391H0v200.348h33.391V239.304h345.044v166.957h100.174V372.87h-66.783V272.696z" data-original="#000000"/>
  <path d="M478.609 272.696H512V372.87h-33.391zM33.391 406.261h33.391v33.391H33.391zm33.392 33.391h33.391v33.391H66.783zm33.391 33.391h211.478v33.391H100.174zm211.478-33.391h33.391v33.391h-33.391zm33.391-33.391h33.391v33.391h-33.391zM200.348 5.565h33.391v33.391h-33.391z" data-original="#000000"/>
</svg>
