<?xml version="1.0" encoding="UTF-8"?><svg xmlns="http://www.w3.org/2000/svg" viewBox="0 0 24 24" fill="currentColor"><g id="a"/><g id="b"><path class="c" d="M22.73,6.77h-.75v-1.13h-1.07v-1.34h-1.79v-1.53h-1.66V1.43H6.89v1.4h-1.8v1.53h-1.79v1.34h-1.07v1.07h-.58v10.57h.79v1.54h1.07v1.34h1.79v1.53h1.78v.99h10.16v-1.06h1.75v-1.53h1.79v-1.34h1.07v-1.46h.87V6.77Zm-2.79,11.75h-1.07v1.53h-1.79v.77h-2.29v-4.05h-.75v-.78h1.54v-.75h1.69v-.87h.81v-4.84h-.8v-3.17h-1.62v.78h-7.26v-.82h-1.62v3.21h-.79v4.84h.79v.87h1.56v.75h1.63v1.64h-2.36v-.82h-.8v-.8h-.81v-.83h-.83v1.62h.81v.83h.8v.8h.78v.82h2.4v1.57h-2.73v-.69h-1.79v-1.53h-1.07v-1.34h-1.09V7.32h.88v-1.34h1.07v-1.53h1.79v-1.4h10.18v1.34h1.79v1.53h1.07v1.34h1.05v9.92h-1.17v1.34Z"/></g></svg>