<svg xmlns="http://www.w3.org/2000/svg" xml:space="preserve" style="enable-background:new 0 0 512 512" viewBox="0 0 512 512">
  <path d="M233.739 0h44.522v33.391h-44.522zm-66.782 66.783h33.391v33.391h-33.391zm-33.392 33.391h33.391v33.391h-33.391zm-33.391 33.391h33.391v33.391h-33.391zm-33.391 33.392h33.391v33.391H66.783zm-33.392 33.391h33.391v33.391H33.391zM0 233.739h33.391v33.391H0zM345.043 0v66.783h-33.391v33.391h33.391v33.391h33.392V33.391h33.391v166.957h33.391V0zm-66.782 33.391h33.391v33.391h-33.391zm-77.913 0h33.391v33.391h-33.391zM445.217 267.13v211.479h-89.043V278.261H155.826v200.348H66.783V267.13H33.391V512h155.826V311.652h133.566V512h155.826V267.13zm0-66.782h33.391v33.391h-33.391zm33.392 33.391H512v33.391h-33.391z" data-original="#000000"/>
</svg>
