<svg xmlns="http://www.w3.org/2000/svg" xml:space="preserve" fill="currentColor" viewBox="0 0 512 512">
  <path d="M178.087 166.957V512h122.435V300.522H267.13v178.087h-55.652V200.348h55.652v33.391h33.392v-33.391h144.695v-33.391z" data-original="#000000"/>
  <path d="M478.609 233.739v244.87h-55.652V300.522h-33.392V512H512V233.739zM0 166.957V512h133.565V166.957H0zm100.174 311.652H33.391V200.348h66.783v278.261zM33.391 0h66.783v33.391H33.391zm0 100.174h66.783v33.391H33.391zM0 33.391h33.391v66.783H0zm100.174 0h33.391v66.783h-33.391zm345.043 166.957h33.391v33.391h-33.391zM300.522 267.13h89.043v33.391h-89.043z" data-original="#000000"/>
</svg>
