<svg xmlns="http://www.w3.org/2000/svg" xml:space="preserve" fill="currentColor" viewBox="0 0 512 512">
  <path d="M66.783 345.043h33.391v33.391H66.783zm33.391 33.392h33.391v33.391h-33.391zm33.391 33.391h33.391v33.391h-33.391zm33.392 33.391h66.783v33.391h-66.783zM33.391 278.261h33.391v66.783H33.391zM0 100.174h33.391v178.087H0zm233.739 378.435h178.087V512H233.739zM33.391 66.783h133.565v33.391H33.391zm378.435 278.26h33.391v133.565h-33.391zM166.957 100.174h33.391v89.043h-33.391zm155.826 211.478h89.044v33.391h-89.044zM133.565 189.217h33.391v33.391h-33.391zm155.826 155.826h33.391v33.391h-33.391zM100.174 222.609h33.391v55.652h-33.391zm133.565 155.826h55.652v33.391h-55.652zM133.565 278.261h33.391v33.391h-33.391zm33.392 33.391h33.391v33.391h-33.391zm33.391 33.391h33.391v33.391h-33.391zm44.522-244.869h66.783v33.391H244.87zm66.782 33.391h33.391v33.391h-33.391zm66.783 66.783h33.391v66.783h-33.391zm-33.392-33.391h33.391v33.391h-33.391zM200.348 0h111.304v33.391H200.348zm178.087 66.783h33.391v33.391h-33.391zm100.174 133.565H512v144.696h-33.391zm-66.783-100.174h33.391v33.391h-33.391zm33.391 33.391h33.391v66.783h-33.391zM311.652 33.391h66.783v33.391h-66.783z" data-original="#000000"/>
</svg>
